<svg width="573" height="441" viewBox="0 0 573 441" fill="none" xmlns="http://www.w3.org/2000/svg">
<g clip-path="url(#clip0_903_32300)">
<path d="M573 375.418H0V375.704H573V375.418Z" fill="#EBEBEB"/>
<path d="M98.075 386.331H60.1172V386.617H98.075V386.331Z" fill="#EBEBEB"/>
<path d="M206.088 383.222H166.551V383.508H206.088V383.222Z" fill="#EBEBEB"/>
<path d="M150.698 391.864H87.1895V392.151H150.698V391.864Z" fill="#EBEBEB"/>
<path d="M514.362 392.915H464.863V393.201H514.362V392.915Z" fill="#EBEBEB"/>
<path d="M450.759 385.753H424.512V386.039H450.759V385.753Z" fill="#EBEBEB"/>
<path d="M331.548 390.353H224.195V390.64H331.548V390.353Z" fill="#EBEBEB"/>
<path d="M271.618 324.308H50.3265C46.7201 324.308 43.7852 321.373 43.7852 317.766V6.70531C43.7852 3.09885 46.7201 0.16394 50.3265 0.16394H271.618C275.223 0.16394 278.158 3.09885 278.158 6.70531V317.766C278.158 321.373 275.223 324.308 271.618 324.308ZM50.3265 0.451586C46.8771 0.451586 44.0717 3.25699 44.0717 6.70645V317.768C44.0717 321.217 46.8771 324.022 50.3265 324.022H271.618C275.066 324.022 277.872 321.217 277.872 317.768V6.70531C277.872 3.25699 275.066 0.45044 271.618 0.45044L50.3265 0.451586Z" fill="#EBEBEB"/>
<path d="M519.495 324.308H298.204C294.598 324.308 291.664 321.373 291.664 317.766V6.70531C291.664 3.09885 294.599 0.16394 298.204 0.16394H519.495C523.102 0.16394 526.036 3.09885 526.036 6.70531V317.766C526.037 321.373 523.102 324.308 519.495 324.308ZM298.204 0.451586C294.756 0.451586 291.951 3.25699 291.951 6.70645V317.768C291.951 321.217 294.756 324.022 298.204 324.022H519.495C522.944 324.022 525.749 321.217 525.749 317.768V6.70531C525.749 3.25699 522.944 0.45044 519.495 0.45044L298.204 0.451586Z" fill="#EBEBEB"/>
<path d="M232.337 371.866H170.293V375.419H232.337V371.866Z" fill="#E0E0E0"/>
<path d="M195.739 294.274L178.594 371.866H224.035L206.89 294.274C205.571 288.303 197.058 288.303 195.739 294.274Z" fill="#E0E0E0"/>
<path d="M210.299 309.678H192.332L187.988 329.34H214.642L210.299 309.678Z" fill="#F5F5F5"/>
<path d="M215.401 332.801H187.228L185.025 342.754H217.604L215.401 332.801Z" fill="#F5F5F5"/>
<path d="M83.1035 375.417H92.3254L119.458 223.689H110.235L83.1035 375.417Z" fill="#E0E0E0"/>
<path d="M324.496 375.417H333.718L360.851 223.689H351.629L324.496 375.417Z" fill="#E0E0E0"/>
<path d="M387.982 231.076H83.1035V286.217H387.982V231.076Z" fill="#EBEBEB"/>
<path d="M116.156 283.785H84.5508L102.081 233.509H133.687L116.156 283.785Z" fill="#FAFAFA"/>
<path d="M179.369 283.785H147.764L165.294 233.509H196.9L179.369 283.785Z" fill="#FAFAFA"/>
<path d="M242.58 283.785H210.975L228.505 233.509H260.111L242.58 283.785Z" fill="#FAFAFA"/>
<path d="M305.791 283.785H274.186L291.716 233.509H323.321L305.791 283.785Z" fill="#FAFAFA"/>
<path d="M369.002 283.785H337.396L354.927 233.509H386.532L369.002 283.785Z" fill="#FAFAFA"/>
<path d="M146.591 375.417H137.369L110.236 223.689H119.459L146.591 375.417Z" fill="#E0E0E0"/>
<path d="M387.983 375.417H378.762L351.629 223.689H360.851L387.983 375.417Z" fill="#E0E0E0"/>
<path d="M512.261 370.758H430.895V375.416H512.261V370.758Z" fill="#E0E0E0"/>
<path d="M463.731 271.424L441.781 370.759H501.373L479.424 271.424C477.567 263.02 465.587 263.02 463.731 271.424Z" fill="#E0E0E0"/>
<path d="M483.357 289.205H459.795L454.1 314.99H489.053L483.357 289.205Z" fill="#F5F5F5"/>
<path d="M490.05 319.528H453.103L450.215 332.581H492.938L490.05 319.528Z" fill="#F5F5F5"/>
<path d="M530.6 214.405V247.984C530.6 250.234 528.413 251.836 526.268 251.155L41.5464 97.5409C40.1643 97.1031 39.2246 95.8196 39.2246 94.3699V60.7909C39.2246 58.5413 41.4112 56.9392 43.5565 57.6199L528.278 211.235C529.66 211.672 530.6 212.956 530.6 214.405Z" fill="#EBEBEB"/>
<path d="M492.454 237.881L519.14 246.339L504.338 206.208L477.652 197.752L492.454 237.881Z" fill="#FAFAFA"/>
<path d="M439.083 220.967L465.768 229.424L450.966 189.294L424.281 180.837L439.083 220.967Z" fill="#FAFAFA"/>
<path d="M385.714 204.052L412.4 212.509L397.598 172.379L370.912 163.922L385.714 204.052Z" fill="#FAFAFA"/>
<path d="M332.343 187.138L359.029 195.596L344.227 155.466L317.541 147.009L332.343 187.138Z" fill="#FAFAFA"/>
<path d="M278.97 170.224L305.655 178.682L290.854 138.551L264.168 130.095L278.97 170.224Z" fill="#FAFAFA"/>
<path d="M225.601 153.311L252.286 161.768L237.485 121.638L210.799 113.181L225.601 153.311Z" fill="#FAFAFA"/>
<path d="M172.229 136.396L198.914 144.852L184.112 104.723L157.428 96.2655L172.229 136.396Z" fill="#FAFAFA"/>
<path d="M118.856 119.481L145.542 127.938L130.74 87.8089L104.055 79.3514L118.856 119.481Z" fill="#FAFAFA"/>
<path d="M65.4861 102.568L92.1719 111.025L77.3702 70.8947L50.6855 62.4384L65.4861 102.568Z" fill="#FAFAFA"/>
<path d="M286.501 427.174C409.217 427.174 508.698 421.364 508.698 414.198C508.698 407.031 409.217 401.222 286.501 401.222C163.786 401.222 64.3047 407.031 64.3047 414.198C64.3047 421.364 163.786 427.174 286.501 427.174Z" fill="#F5F5F5"/>
<path d="M374.136 404.265H360.92V6.0852C360.92 3.93645 374.136 3.93645 374.136 6.0852V404.265Z" fill="#263238"/>
<path d="M374.134 155.611L360.92 158.275V139.996H374.134V155.611Z" fill="black"/>
<path d="M455.797 151.029L270.377 137.238C262.834 136.677 257.122 130.047 257.682 122.504L265.427 18.3787C265.989 10.8357 272.618 5.12405 280.161 5.68444L465.582 19.4754C473.125 20.0369 478.836 26.6666 478.276 34.2095L470.531 138.335C469.971 145.878 463.34 151.591 455.797 151.029Z" fill="white"/>
<path d="M456.832 152.787C456.445 152.787 456.058 152.773 455.67 152.744L270.25 138.954C266.144 138.648 262.394 136.752 259.69 133.613C256.985 130.474 255.664 126.484 255.969 122.378L263.714 18.2531C264.02 14.147 265.916 10.3973 269.055 7.69161C272.194 4.98819 276.183 3.65884 280.29 3.97169L465.71 17.7627C469.816 18.0686 473.566 19.9653 476.27 23.103C478.975 26.2419 480.296 30.2323 479.991 34.3384L472.247 138.464C471.941 142.569 470.044 146.32 466.905 149.024C464.063 151.472 460.523 152.787 456.832 152.787ZM279.134 7.36614C276.265 7.36614 273.511 8.38952 271.298 10.2965C268.854 12.4017 267.378 15.3171 267.142 18.5076L259.398 122.632C258.906 129.249 263.888 135.033 270.505 135.524L455.924 149.314C459.115 149.55 462.217 148.524 464.66 146.419C467.103 144.314 468.579 141.398 468.815 138.208L476.56 34.0828C477.052 27.467 472.07 21.6831 465.453 21.1915L280.034 7.40052C279.733 7.3776 279.433 7.36614 279.134 7.36614Z" fill="#38A993"/>
<path d="M329.41 61.0092L306.115 59.2765L306.898 48.7596L332.252 22.8027L343.397 23.6324L341.294 51.9192L347.071 52.3489L346.333 62.2687L340.556 61.8389L339.916 70.442L328.772 69.6123L329.41 61.0092ZM330.148 51.0895L331.225 36.6052L317.839 50.1738L330.148 51.0895Z" fill="#38A993"/>
<path d="M351.404 47.9663C352.055 39.2177 354.085 33.2127 357.495 29.9523C360.905 26.6897 365.833 25.2996 372.28 25.7786C375.378 26.0089 377.892 26.5808 379.823 27.4919C381.755 28.4041 383.303 29.518 384.468 30.8359C385.633 32.1526 386.526 33.5152 387.147 34.9191C387.768 36.3241 388.232 37.9411 388.537 39.7724C389.14 43.2711 389.303 46.881 389.026 50.6055C388.405 58.9564 386.538 64.9626 383.425 68.6252C380.312 72.2879 375.301 73.8602 368.394 73.3468C364.522 73.0591 361.439 72.2099 359.144 70.7969C356.851 69.385 355.028 67.4288 353.678 64.9282C352.694 63.1497 352.004 60.7683 351.605 57.7818C351.207 54.7976 351.14 51.5258 351.404 47.9663ZM364.086 48.9404C363.651 54.801 363.869 58.8441 364.747 61.0662C365.624 63.2872 367.045 64.4721 369.013 64.6188C370.31 64.7151 371.469 64.3438 372.49 63.5026C373.51 62.6637 374.318 61.2782 374.915 59.3438C375.511 57.4093 375.963 54.3598 376.274 50.1953C376.728 44.0837 376.517 39.9386 375.637 37.7577C374.756 35.5769 373.282 34.4103 371.208 34.2555C369.094 34.0974 367.487 35.0566 366.386 37.132C365.284 39.2063 364.518 43.1439 364.086 48.9404Z" fill="#38A993"/>
<path d="M407.398 42.5666L395.472 39.4999C396.764 35.7238 398.913 32.9173 401.923 31.0768C404.932 29.2386 409.053 28.5143 414.286 28.904C420.292 29.3509 424.552 30.7937 427.065 33.2313C429.576 35.6711 430.707 38.5854 430.455 41.9753C430.307 43.9647 429.629 45.7238 428.421 47.2537C427.213 48.7848 425.465 50.0763 423.177 51.1261C424.922 51.6979 426.246 52.311 427.143 52.9665C428.601 54.022 429.697 55.3502 430.43 56.9535C431.163 58.5533 431.45 60.4213 431.29 62.5574C431.091 65.2368 430.198 67.7534 428.614 70.1073C427.029 72.4634 424.869 74.2065 422.133 75.3399C419.397 76.4722 415.882 76.879 411.593 76.5592C407.406 76.2487 404.143 75.5107 401.798 74.3475C399.453 73.1831 397.572 71.5982 396.154 69.587C394.736 67.5769 393.714 65.1073 393.092 62.1781L405.995 61.4332C406.306 64.0438 406.953 65.8877 407.935 66.9592C408.917 68.0319 410.226 68.6289 411.858 68.7504C413.574 68.8776 415.049 68.3562 416.283 67.1861C417.516 66.016 418.212 64.3841 418.368 62.2904C418.527 60.1577 418.1 58.4616 417.088 57.2079C416.076 55.9542 414.629 55.2574 412.746 55.1176C411.741 55.0431 410.341 55.1909 408.546 55.5622L409.884 46.4756C410.588 46.6337 411.139 46.7266 411.537 46.7564C413.211 46.8801 414.648 46.4504 415.847 45.466C417.045 44.4839 417.701 43.2576 417.809 41.793C417.913 40.3903 417.577 39.2398 416.803 38.3401C416.028 37.4417 414.908 36.9351 413.442 36.8274C411.935 36.7151 410.677 37.0807 409.668 37.9207C408.659 38.7607 407.903 40.309 407.398 42.5666Z" fill="#38A993"/>
<path d="M311.79 79.0791L329.576 80.4016L329.235 84.9879L318.101 84.1593L317.846 87.5733L328.175 88.3422L327.85 92.7222L317.521 91.9533L317.206 96.1877L328.663 97.0403L328.302 101.904L310.193 100.556L311.79 79.0791Z" fill="#38A993"/>
<path d="M331.965 102.176L333.562 80.6973L344.624 81.5201C346.675 81.6737 348.229 81.9659 349.287 82.3991C350.344 82.8311 351.17 83.5474 351.763 84.549C352.357 85.5506 352.603 86.7355 352.501 88.1027C352.412 89.2946 352.082 90.3042 351.509 91.1316C350.937 91.9579 350.185 92.6065 349.257 93.0764C348.664 93.3789 347.867 93.6024 346.863 93.7536C347.634 94.0768 348.19 94.3839 348.531 94.6739C348.763 94.8687 349.088 95.2709 349.509 95.8841C349.931 96.4949 350.207 96.9613 350.34 97.2879L353.091 103.75L345.592 103.193L342.532 96.3654C342.146 95.4818 341.786 94.9019 341.454 94.6212C340.999 94.2533 340.47 94.0459 339.864 94.0012L339.279 93.9576L338.63 102.675L331.965 102.176ZM339.581 89.8951L342.379 90.1036C342.681 90.1266 343.275 90.0738 344.158 89.9409C344.604 89.8859 344.98 89.6876 345.285 89.3484C345.591 89.0069 345.76 88.6024 345.796 88.1325C345.847 87.4392 345.668 86.8914 345.255 86.4869C344.844 86.0823 344.031 85.8359 342.821 85.7465L339.905 85.5299L339.581 89.8951Z" fill="#38A993"/>
<path d="M355.305 103.911L356.902 82.4326L367.962 83.2554C370.014 83.409 371.568 83.7012 372.626 84.1344C373.684 84.5665 374.51 85.2827 375.104 86.2843C375.698 87.2859 375.943 88.4709 375.842 89.8381C375.754 91.0299 375.423 92.0395 374.85 92.867C374.277 93.6932 373.526 94.3419 372.598 94.8117C372.005 95.1143 371.208 95.3377 370.204 95.489C370.975 95.8122 371.531 96.1193 371.872 96.4092C372.104 96.6052 372.429 97.0063 372.85 97.6194C373.272 98.2302 373.547 98.6966 373.681 99.0233L376.432 105.486L368.933 104.929L365.874 98.1007C365.488 97.2183 365.128 96.6373 364.796 96.3565C364.342 95.9887 363.813 95.7812 363.206 95.7365L362.621 95.693L361.973 104.411L355.305 103.911ZM362.92 91.6316L365.718 91.8401C366.021 91.8631 366.615 91.8103 367.498 91.6774C367.944 91.6224 368.32 91.4241 368.625 91.0849C368.931 90.7434 369.1 90.3389 369.136 89.8702C369.187 89.1757 369.007 88.629 368.595 88.2234C368.183 87.8188 367.371 87.5724 366.161 87.483L363.245 87.2664L362.92 91.6316Z" fill="#38A993"/>
<path d="M378.003 94.8163C378.264 91.3095 379.444 88.6531 381.542 86.8458C383.64 85.0352 386.433 84.2616 389.92 84.5218C393.495 84.7865 396.179 85.952 397.969 88.0159C399.761 90.0787 400.527 92.8383 400.27 96.2969C400.083 98.8078 399.508 100.835 398.544 102.379C397.579 103.922 396.266 105.081 394.602 105.856C392.938 106.632 390.915 106.931 388.533 106.752C386.11 106.572 384.134 106.038 382.604 105.147C381.074 104.258 379.879 102.941 379.016 101.197C378.153 99.4541 377.816 97.326 378.003 94.8163ZM384.637 95.3388C384.476 97.5082 384.763 99.0954 385.498 100.103C386.234 101.11 387.295 101.665 388.682 101.768C390.107 101.874 391.245 101.492 392.097 100.623C392.947 99.7532 393.461 98.1156 393.64 95.7147C393.79 93.692 393.492 92.185 392.746 91.1915C392 90.1979 390.929 89.649 389.532 89.5458C388.193 89.4461 387.084 89.8403 386.203 90.7273C385.321 91.6143 384.8 93.1523 384.637 95.3388Z" fill="#38A993"/>
<path d="M403.125 107.468L404.721 85.9893L415.783 86.8121C417.834 86.9657 419.388 87.2579 420.446 87.6911C421.503 88.1231 422.33 88.8394 422.922 89.841C423.516 90.8426 423.762 92.0275 423.66 93.3947C423.571 94.5866 423.241 95.5962 422.668 96.4236C422.096 97.2499 421.344 97.8985 420.416 98.3684C419.822 98.6709 419.025 98.8944 418.022 99.0456C418.793 99.3688 419.349 99.6759 419.69 99.9659C419.921 100.162 420.247 100.563 420.668 101.176C421.09 101.787 421.366 102.253 421.499 102.58L424.25 109.042L416.751 108.485L413.691 101.657C413.306 100.775 412.945 100.194 412.613 99.9132C412.159 99.5453 411.629 99.3379 411.023 99.2932L410.438 99.2496L409.79 107.967L403.125 107.468ZM410.741 95.1871L413.539 95.3956C413.841 95.4186 414.435 95.3658 415.32 95.2329C415.765 95.1779 416.141 94.9796 416.445 94.6404C416.751 94.2989 416.921 93.8944 416.956 93.4245C417.008 92.7312 416.828 92.1834 416.415 91.7789C416.004 91.3743 415.191 91.1279 413.98 91.0385L411.064 90.822L410.741 95.1871Z" fill="#38A993"/>
<path d="M289.652 124.38L291.11 104.781L304.331 105.763L304.16 108.076L293.532 107.286L293.08 113.356L302.277 114.04L302.105 116.355L292.907 115.671L292.245 124.574L289.652 124.38Z" fill="#263238"/>
<path d="M306.163 116.01C306.405 112.757 307.469 110.276 309.351 108.565C311.235 106.855 313.558 106.103 316.321 106.308C318.131 106.442 319.73 106.996 321.117 107.969C322.506 108.941 323.523 110.229 324.17 111.831C324.817 113.433 325.068 115.215 324.922 117.176C324.774 119.163 324.241 120.913 323.322 122.42C322.403 123.929 321.178 125.033 319.648 125.73C318.118 126.426 316.501 126.712 314.8 126.586C312.954 126.448 311.339 125.88 309.953 124.882C308.568 123.882 307.557 122.584 306.923 120.986C306.288 119.389 306.035 117.731 306.163 116.01ZM308.833 116.249C308.658 118.611 309.154 120.52 310.323 121.972C311.492 123.425 313.035 124.223 314.951 124.366C316.902 124.51 318.56 123.944 319.923 122.666C321.286 121.389 322.062 119.489 322.25 116.965C322.369 115.37 322.202 113.957 321.752 112.727C321.301 111.497 320.581 110.515 319.591 109.784C318.602 109.052 317.461 108.637 316.169 108.541C314.333 108.404 312.706 108.918 311.289 110.081C309.872 111.244 309.053 113.301 308.833 116.249Z" fill="#263238"/>
<path d="M327.578 127.2L329.036 107.602L337.725 108.248C339.471 108.377 340.786 108.654 341.669 109.072C342.552 109.492 343.232 110.167 343.71 111.099C344.187 112.032 344.387 113.036 344.306 114.114C344.203 115.506 343.665 116.643 342.694 117.532C341.723 118.418 340.287 118.919 338.388 119.039C339.05 119.419 339.547 119.784 339.879 120.13C340.585 120.883 341.238 121.804 341.839 122.897L344.851 128.485L341.589 128.242L339.299 123.972C338.629 122.739 338.072 121.792 337.629 121.131C337.184 120.471 336.778 120.002 336.408 119.723C336.039 119.444 335.657 119.241 335.263 119.113C334.974 119.029 334.495 118.962 333.827 118.911L330.819 118.688L330.172 127.392L327.578 127.2ZM330.985 116.444L336.56 116.859C337.745 116.947 338.682 116.892 339.368 116.699C340.055 116.501 340.592 116.148 340.979 115.634C341.367 115.12 341.585 114.547 341.632 113.915C341.7 112.988 341.421 112.2 340.793 111.554C340.164 110.907 339.123 110.528 337.671 110.422L331.468 109.96L330.985 116.444Z" fill="#263238"/>
<path d="M347.201 128.659L348.659 109.061L356.012 109.608C357.509 109.719 358.694 110.008 359.57 110.471C360.444 110.937 361.108 111.599 361.559 112.461C362.01 113.324 362.202 114.204 362.135 115.106C362.073 115.943 361.786 116.715 361.276 117.419C360.768 118.125 360.036 118.673 359.085 119.059C360.244 119.495 361.111 120.155 361.687 121.039C362.262 121.924 362.506 122.937 362.422 124.078C362.354 124.997 362.097 125.833 361.651 126.594C361.204 127.354 360.68 127.926 360.079 128.312C359.476 128.697 358.738 128.967 357.861 129.122C356.985 129.276 355.923 129.307 354.675 129.214L347.201 128.659ZM349.968 126.542L354.846 126.904C355.684 126.967 356.274 126.978 356.618 126.94C357.223 126.877 357.735 126.735 358.155 126.518C358.574 126.298 358.932 125.959 359.225 125.501C359.518 125.045 359.689 124.502 359.736 123.878C359.79 123.148 359.65 122.5 359.316 121.932C358.981 121.365 358.49 120.949 357.843 120.679C357.195 120.413 356.248 120.232 355 120.139L350.468 119.802L349.968 126.542ZM350.64 117.491L354.878 117.805C356.028 117.89 356.857 117.876 357.367 117.761C358.041 117.613 358.563 117.327 358.931 116.897C359.298 116.466 359.508 115.908 359.559 115.221C359.607 114.573 359.493 113.987 359.219 113.469C358.943 112.951 358.524 112.581 357.958 112.354C357.391 112.128 356.405 111.962 354.996 111.857L351.079 111.566L350.64 117.491Z" fill="#263238"/>
<path d="M366.012 130.059L367.469 110.46L370.063 110.654L368.605 130.253L366.012 130.059Z" fill="#263238"/>
<path d="M373.176 130.591L374.633 110.992L381.385 111.495C382.909 111.609 384.064 111.79 384.852 112.036C385.956 112.379 386.88 112.919 387.622 113.653C388.592 114.604 389.281 115.778 389.692 117.175C390.104 118.572 390.244 120.144 390.115 121.89C390.005 123.379 389.732 124.685 389.299 125.809C388.867 126.933 388.349 127.85 387.749 128.563C387.15 129.277 386.511 129.824 385.832 130.208C385.154 130.593 384.349 130.862 383.42 131.019C382.489 131.172 381.433 131.205 380.247 131.117L373.176 130.591ZM375.941 128.472L380.125 128.783C381.418 128.879 382.44 128.833 383.193 128.646C383.946 128.462 384.557 128.166 385.027 127.763C385.688 127.193 386.228 126.401 386.648 125.389C387.069 124.377 387.335 123.132 387.445 121.651C387.597 119.602 387.377 118 386.787 116.851C386.195 115.701 385.432 114.902 384.498 114.455C383.822 114.137 382.714 113.919 381.173 113.804L377.056 113.498L375.941 128.472Z" fill="#263238"/>
<path d="M392.949 132.062L394.407 112.463L401.158 112.966C402.682 113.08 403.837 113.261 404.626 113.507C405.729 113.85 406.652 114.389 407.396 115.124C408.365 116.075 409.054 117.249 409.465 118.646C409.877 120.043 410.018 121.615 409.888 123.36C409.778 124.85 409.507 126.155 409.073 127.28C408.64 128.405 408.123 129.321 407.524 130.033C406.925 130.747 406.285 131.295 405.608 131.679C404.93 132.064 404.125 132.332 403.196 132.489C402.265 132.643 401.207 132.676 400.022 132.588L392.949 132.062ZM395.715 129.943L399.899 130.254C401.19 130.35 402.213 130.304 402.966 130.117C403.719 129.933 404.33 129.637 404.8 129.234C405.461 128.664 406.001 127.871 406.422 126.86C406.842 125.848 407.107 124.603 407.217 123.122C407.369 121.073 407.15 119.471 406.559 118.321C405.968 117.172 405.206 116.373 404.271 115.926C403.596 115.608 402.486 115.39 400.945 115.275L396.827 114.969L395.715 129.943Z" fill="#263238"/>
<path d="M412.773 133.537L414.231 113.938L428.401 114.993L428.23 117.305L416.653 116.444L416.206 122.446L427.048 123.253L426.877 125.553L416.035 124.746L415.539 131.417L427.571 132.312L427.399 134.625L412.773 133.537Z" fill="#263238"/>
<path d="M430.955 134.889L432.413 115.29L435.073 115.488L444.222 131.641L445.367 116.254L447.853 116.438L446.395 136.037L443.735 135.84L434.587 119.673L433.442 135.075L430.955 134.889Z" fill="#263238"/>
<path d="M277.201 415.596H247.191L269.003 242.35H299.014L277.201 415.596Z" fill="#38A993"/>
<path opacity="0.4" d="M277.201 415.596H247.191L269.003 242.35H299.014L277.201 415.596Z" fill="black"/>
<path d="M244.508 415.596H247.192L269.004 242.35H266.321L244.508 415.596Z" fill="#263238"/>
<path d="M389.11 415.596H359.1L380.913 242.35H410.923L389.11 415.596Z" fill="#38A993"/>
<path opacity="0.4" d="M389.11 415.596H359.1L380.913 242.35H410.923L389.11 415.596Z" fill="black"/>
<path d="M356.414 415.596H359.098L380.911 242.35H378.227L356.414 415.596Z" fill="#263238"/>
<path d="M304.974 394.981H413.799L409.051 357.271H300.227L304.974 394.981Z" fill="#38A993"/>
<path d="M304.975 394.981H303.193L298.445 357.271H300.227L304.975 394.981Z" fill="#263238"/>
<path d="M407.801 358.918L412.134 393.335H405.705L388.439 358.918H407.801Z" fill="white"/>
<path d="M377.475 358.918L394.741 393.335H371.129L353.863 358.918H377.475Z" fill="white"/>
<path d="M342.899 358.918L360.166 393.335H336.553L319.287 358.918H342.899Z" fill="white"/>
<path d="M308.33 358.918L325.595 393.335H306.226L301.893 358.918H308.33Z" fill="white"/>
<path d="M403.381 415.596H433.392L411.579 242.35H381.568L403.381 415.596Z" fill="#38A993"/>
<path opacity="0.2" d="M391.285 319.531L422.857 331.935L413.799 259.99H383.789L391.285 319.531Z" fill="black"/>
<path d="M403.381 415.596H400.698L378.885 242.35H381.568L403.381 415.596Z" fill="#263238"/>
<path d="M291.475 415.596H321.485L299.672 242.35H269.662L291.475 415.596Z" fill="#38A993"/>
<path opacity="0.2" d="M279.38 319.531L310.951 331.935L301.893 259.99H271.883L279.38 319.531Z" fill="black"/>
<path d="M291.475 415.596H288.791L266.979 242.35H269.662L291.475 415.596Z" fill="#263238"/>
<path d="M267.395 311.537H431.266L424.116 254.754H260.246L267.395 311.537Z" fill="#38A993"/>
<path d="M267.395 311.537H264.712L257.562 254.754H260.246L267.395 311.537Z" fill="#263238"/>
<path d="M422.233 257.234L428.758 309.059H419.075L393.076 257.234H422.233Z" fill="white"/>
<path d="M376.566 257.234L402.565 309.059H367.009L341.01 257.234H376.566Z" fill="white"/>
<path d="M324.498 257.234L350.498 309.059H314.941L288.941 257.234H324.498Z" fill="white"/>
<path d="M272.443 257.234L298.442 309.059H269.275L262.75 257.234H272.443Z" fill="white"/>
</g>
<defs>
<clipPath id="clip0_903_32300">
<rect width="573" height="440.064" fill="white" transform="translate(0 0.21875)"/>
</clipPath>
</defs>
</svg>
